<svg xmlns="http://www.w3.org/2000/svg" width="87.863" height="120.893" viewBox="0 0 87.863 120.893">
  <g id="Accounting_Consulting" data-name="Accounting Consulting" transform="translate(-15.001 -7.999)">
    <g id="Group_40960" data-name="Group 40960" transform="translate(15.001 7.999)">
      <g id="Artboard20" transform="translate(0)">
        <g id="Group_40956" data-name="Group 40956" transform="translate(0.18 56.455)">
          <path id="Path_31889" data-name="Path 31889" d="M347.3,323.761a43.829,43.829,0,0,0-43.841,43.817V385.62a2.579,2.579,0,0,0,2.579,2.577h82.525a2.579,2.579,0,0,0,2.579-2.577V367.578a43.29,43.29,0,0,0-20.3-36.922A44.664,44.664,0,0,0,347.3,323.761Z" transform="translate(-303.456 -323.759)" fill="#c51c22"/>
        </g>
        <g id="Group_40957" data-name="Group 40957" transform="translate(20.694 10.316)">
          <ellipse id="Ellipse_7" data-name="Ellipse 7" cx="23.205" cy="23.204" rx="23.205" ry="23.204" transform="translate(0 0)" fill="#ffd04e"/>
        </g>
        <g id="Group_40958" data-name="Group 40958">
          <path id="Path_31890" data-name="Path 31890" d="M27.3,30.118a7.687,7.687,0,0,0-4.515-1.488h-.049A7.734,7.734,0,0,0,15,36.363V46.678a7.735,7.735,0,0,0,15.47,0V40.888a28.361,28.361,0,1,1,28.353,28.99,2.578,2.578,0,0,0,0,5.157A33.546,33.546,0,0,0,90.351,52.913a7.736,7.736,0,0,0,12.311-6.234V36.363a7.732,7.732,0,0,0-7.686-7.732h-.049a7.7,7.7,0,0,0-4.574,1.5A33.526,33.526,0,0,0,27.3,30.118Z" transform="translate(-15.001 -7.999)" fill="#0066af"/>
        </g>
        <g id="Group_40959" data-name="Group 40959" transform="translate(38.672 59.303)">
          <circle id="Ellipse_8" data-name="Ellipse 8" cx="5.157" cy="5.157" r="5.157" transform="translate(0)" fill="#ffd04e"/>
        </g>
      </g>
    </g>
  </g>
</svg>
