<svg xmlns="http://www.w3.org/2000/svg" width="126.109" height="138.293" viewBox="0 0 126.109 138.293">
  <g id="Feasibility_study" data-name="Feasibility study" transform="translate(0 67.845)">
    <g id="Group_40946" data-name="Group 40946" transform="translate(0 -67.845)">
      <path id="Path_31824" data-name="Path 31824" d="M413.727,282.412h0a3.685,3.685,0,0,1-5.212,0l-24.149-24.149,5.212-5.212L413.727,277.2A3.685,3.685,0,0,1,413.727,282.412Z" transform="translate(-292.695 -176.517)" fill="#0066af"/>
      <path id="Path_31825" data-name="Path 31825" d="M76.441,165.258H.954A.954.954,0,0,1,0,164.3V57.614a.954.954,0,0,1,.954-.954H76.441a.954.954,0,0,1,.954.954V164.3A.954.954,0,0,1,76.441,165.258Z" transform="translate(0 -26.966)" fill="#ffacac"/>
      <path id="Path_31826" data-name="Path 31826" d="M47.269,349.091H34.435a.954.954,0,0,1-.954-.954V310.242a.954.954,0,0,1,.954-.954H47.269a.954.954,0,0,1,.954.954v37.895A.954.954,0,0,1,47.269,349.091Z" transform="translate(-25.496 -219.342)" fill="#ff0009"/>
      <path id="Path_31827" data-name="Path 31827" d="M144.106,302.022H131.272a.954.954,0,0,1-.954-.954V248.431a.954.954,0,0,1,.954-.954h12.834a.954.954,0,0,1,.954.954v52.637A.954.954,0,0,1,144.106,302.022Z" transform="translate(-99.237 -172.273)" fill="#ffd659"/>
      <path id="Path_31828" data-name="Path 31828" d="M243,319.281H230.169a.954.954,0,0,1-.954-.954V271.095a.954.954,0,0,1,.954-.954H243a.954.954,0,0,1,.954.954v47.232A.954.954,0,0,1,243,319.281Z" transform="translate(-174.547 -189.532)" fill="#0095ff"/>
      <path id="Path_31829" data-name="Path 31829" d="M64.386,309.288v39.8H70.8a.954.954,0,0,0,.954-.954V310.242a.954.954,0,0,0-.954-.954Z" transform="translate(-49.03 -219.342)" fill="#c51c22"/>
      <path id="Path_31830" data-name="Path 31830" d="M161.223,247.477v54.545h6.417a.954.954,0,0,0,.954-.954V248.431a.954.954,0,0,0-.954-.954Z" transform="translate(-122.771 -172.273)" fill="#ffbd54"/>
      <path id="Path_31831" data-name="Path 31831" d="M260.121,270.141v49.14h6.417a.954.954,0,0,0,.954-.954V271.095a.954.954,0,0,0-.954-.954Z" transform="translate(-198.082 -189.532)" fill="#0066af"/>
      <g id="Group_40945" data-name="Group 40945" transform="translate(9.145 37.789)">
        <path id="Path_31832" data-name="Path 31832" d="M40.132,94.178H94.185a1.789,1.789,0,1,0,0-3.577H40.132a1.789,1.789,0,1,0,0,3.577Z" transform="translate(-38.343 -90.601)" fill="#fff"/>
        <path id="Path_31833" data-name="Path 31833" d="M94.185,124.94H40.132a1.789,1.789,0,1,0,0,3.577H94.185a1.789,1.789,0,1,0,0-3.577Z" transform="translate(-38.343 -116.75)" fill="#fff"/>
        <path id="Path_31834" data-name="Path 31834" d="M94.185,159.28H40.132a1.789,1.789,0,1,0,0,3.577H94.185a1.789,1.789,0,1,0,0-3.577Z" transform="translate(-38.343 -142.9)" fill="#fff"/>
        <path id="Path_31835" data-name="Path 31835" d="M53.91,193.619H40.132a1.789,1.789,0,1,0,0,3.577H53.91a1.789,1.789,0,1,0,0-3.577Z" transform="translate(-38.343 -169.049)" fill="#fff"/>
      </g>
      <path id="Path_31838" data-name="Path 31838" d="M39.066,0A39.066,39.066,0,1,1,0,39.066,39.066,39.066,0,0,1,39.066,0Z" transform="translate(15.615 55.247) rotate(-45)" fill="#0066af"/>
      <path id="Path_31836" data-name="Path 31836" d="M218.379,85.06a31.7,31.7,0,1,1,0-44.824A31.731,31.731,0,0,1,218.379,85.06Z" transform="translate(-125.104 -7.401)" fill="#fff"/>
      <path id="Path_31837" data-name="Path 31837" d="M307.762,40.24a31.655,31.655,0,0,0-26.1-9.054,31.678,31.678,0,0,1,0,62.932,31.683,31.683,0,0,0,26.1-53.878Z" transform="translate(-214.488 -7.404)" fill="#fff5f5"/>
    </g>
  </g>
</svg>
