<svg id="honest" xmlns="http://www.w3.org/2000/svg" width="84.693" height="79.965" viewBox="0 0 84.693 79.965">
  <g id="Group_40923" data-name="Group 40923">
    <path id="Path_31783" data-name="Path 31783" d="M24.527,29.136,9.681,14.29H0V44.852l5.1,5.1Z" transform="translate(0 -14.29)" fill="#c51c22"/>
    <path id="Path_31784" data-name="Path 31784" d="M363.723,29.136,378.57,14.29h9.681V44.852l-5.1,5.1Z" transform="translate(-303.558 -14.29)" fill="#0066af"/>
    <g id="Group_40921" data-name="Group 40921" transform="translate(5.098 14.95)">
      <g id="Group_40920" data-name="Group 40920">
        <path id="Path_31785" data-name="Path 31785" d="M66.812,110.842a21.085,21.085,0,1,0-29.819,29.819l29.021,29.021,5.7-5.7.747-2.762,5.247,1.738,3.946-3.946.619-2.89,5.374,1.866,3.946-3.946.133-3.376,5.861,2.352,5.7-5.7-5.4-5.4-10.7-14L75.52,119.55Z" transform="translate(-30.817 -104.666)" fill="#ffbeaa"/>
        <g id="Group_40919" data-name="Group 40919" transform="translate(25.954 0.005)">
          <path id="Path_31786" data-name="Path 31786" d="M209.942,119.574l-6.879,6.879a5.271,5.271,0,0,1-7.455,0l-3.727-3.727,11.855-11.855a21.085,21.085,0,1,1,29.819,29.819l-1.249,1.249Z" transform="translate(-191.193 -104.694)" fill="#faa68e"/>
          <path id="Path_31787" data-name="Path 31787" d="M191.228,351.7l-3.509,3.509,14.943,14.943,1.755-1.755,2.485,2.485,1.755-1.755Z" transform="translate(-187.719 -310.843)" fill="#faa68e"/>
        </g>
      </g>
    </g>
    <g id="Group_40922" data-name="Group 40922" transform="translate(38.506 40.904)">
      <path id="Path_31788" data-name="Path 31788" d="M236.295,306.635l-3.509,3.509,17.428,17.428,1.754-1.754,2.485,2.485,1.755-1.754Z" transform="translate(-232.786 -299.18)" fill="#faa68e"/>
      <path id="Path_31789" data-name="Path 31789" d="M281.363,261.569l-3.509,3.509,19.912,19.913,1.755-1.754,2.485,2.485,1.755-1.754Z" transform="translate(-270.399 -261.569)" fill="#faa68e"/>
    </g>
  </g>
</svg>
