<svg xmlns="http://www.w3.org/2000/svg" width="22.626" height="27.15" viewBox="0 0 22.626 27.15">
  <g id="Location" transform="translate(-4.5 -3)">
    <path id="Subtraction_3" data-name="Subtraction 3" d="M-5035.189-5474.85c-2.173,0-4.968-1.844-7.295-4.813a18.152,18.152,0,0,1-4.017-10.876,11.461,11.461,0,0,1,3.313-8.1,11.161,11.161,0,0,1,8-3.357,11.165,11.165,0,0,1,8,3.357,11.458,11.458,0,0,1,3.314,8.1,18.153,18.153,0,0,1-4.017,10.876C-5030.219-5476.694-5033.015-5474.85-5035.189-5474.85Zm.017-19.292a3.776,3.776,0,0,0-3.771,3.771,3.776,3.776,0,0,0,3.771,3.771,3.776,3.776,0,0,0,3.771-3.771A3.776,3.776,0,0,0-5035.172-5494.142Z" transform="translate(5051 5505)" fill="#fff"/>
  </g>
</svg>
