<svg id="quality" xmlns="http://www.w3.org/2000/svg" width="73.433" height="79.965" viewBox="0 0 73.433 79.965">
  <circle id="Ellipse_3" data-name="Ellipse 3" cx="31.75" cy="31.75" r="31.75" transform="translate(4.896)" fill="#f7e2e2"/>
  <g id="Group_40924" data-name="Group 40924" transform="translate(0 50.23)">
    <path id="Path_31790" data-name="Path 31790" d="M31.674,319.7,20.75,338.637l12.75-.677,5.793,11.381L49.4,331.821A31.718,31.718,0,0,1,31.674,319.7Z" transform="translate(-20.75 -319.606)" fill="#0066af"/>
    <path id="Path_31791" data-name="Path 31791" d="M322.727,319.1a31.728,31.728,0,0,1-17.677,12.184l10.137,17.551,5.793-11.381,12.75.677Z" transform="translate(-260.298 -319.1)" fill="#0066af"/>
  </g>
  <circle id="Ellipse_4" data-name="Ellipse 4" cx="23.014" cy="23.014" r="23.014" transform="translate(13.632 8.736)" fill="#c51c22"/>
  <path id="Path_31792" data-name="Path 31792" d="M182.962,116.66a1.2,1.2,0,0,0-.661-2.046l-9.083-1.322a1.184,1.184,0,0,1-.9-.661L168.26,104.4a1.2,1.2,0,0,0-2.157,0l-4.045,8.233a1.25,1.25,0,0,1-.9.661l-9.083,1.322a1.2,1.2,0,0,0-.661,2.046l6.564,6.407a1.213,1.213,0,0,1,.346,1.055l-1.543,9.035a1.2,1.2,0,0,0,1.747,1.259l8.122-4.266a1.173,1.173,0,0,1,1.118,0l8.122,4.266a1.206,1.206,0,0,0,1.747-1.259l-1.558-9.035a1.184,1.184,0,0,1,.346-1.055Z" transform="translate(-130.544 -87.397)" fill="#fff"/>
</svg>
