<svg xmlns="http://www.w3.org/2000/svg" width="124.961" height="120.893" viewBox="0 0 124.961 120.893">
  <g id="tax_system" data-name="tax system" transform="translate(0 -8.089)">
    <path id="Path_31870" data-name="Path 31870" d="M31.066,115.055a5.726,5.726,0,0,1-5.726-5.726V13.815a5.726,5.726,0,0,1,5.726-5.726H71.952a24.652,24.652,0,0,1,17.431,7.22l16.408,16.409a24.649,24.649,0,0,1,7.22,17.43v60.182a5.726,5.726,0,0,1-5.726,5.726H31.066Z" transform="translate(-18.969)" fill="#fff5f5"/>
    <path id="Path_31871" data-name="Path 31871" d="M240.977,49.149v3.63a13.843,13.843,0,0,0-13.841-13.841H215.855a5.726,5.726,0,0,1-5.726-5.726V21.931A13.843,13.843,0,0,0,196.287,8.09h3.63a24.652,24.652,0,0,1,17.431,7.22l16.408,16.408a24.651,24.651,0,0,1,7.22,17.431Z" transform="translate(-146.935 -0.001)" fill="#ffacac"/>
    <path id="Path_31872" data-name="Path 31872" d="M273.333,233.054V184.4a4.738,4.738,0,0,0-4.738-4.738h-65.65a4.738,4.738,0,0,0-4.738,4.738v48.65a4.738,4.738,0,0,0,4.738,4.738h65.649A4.738,4.738,0,0,0,273.333,233.054Z" transform="translate(-148.372 -128.437)" fill="#66b49d"/>
    <path id="Path_31873" data-name="Path 31873" d="M285.813,241.355V213.686a8.917,8.917,0,0,1-8.917-8.917H232.228a8.917,8.917,0,0,1-8.917,8.917v27.669a8.917,8.917,0,0,1,8.917,8.917H276.9A8.916,8.916,0,0,1,285.813,241.355Z" transform="translate(-167.164 -147.229)" fill="#80e29d"/>
    <path id="Path_31874" data-name="Path 31874" d="M429.262,291.529h-5a1.886,1.886,0,0,1,0-3.771h5a1.886,1.886,0,0,1,0,3.771Z" transform="translate(-316.177 -209.352)" fill="#66b49d"/>
    <path id="Path_31875" data-name="Path 31875" d="M100.585,177.408v44.227a13.607,13.607,0,0,1-13.6,13.607H13.607A13.607,13.607,0,0,1,0,221.635v-57.99a13.607,13.607,0,0,1,13.607-13.6H46.718a13.608,13.608,0,0,1,11.827,6.879A13.605,13.605,0,0,0,70.373,163.8H86.98A13.607,13.607,0,0,1,100.585,177.408Z" transform="translate(0 -106.26)" fill="#c51c22"/>
    <path id="Path_31876" data-name="Path 31876" d="M83.915,236.806H43.455a7.447,7.447,0,0,0-7.447,7.447v19.2a7.447,7.447,0,0,0,7.447,7.447h40.46a7.447,7.447,0,0,0,7.447-7.447v-19.2a7.447,7.447,0,0,0-7.447-7.447Z" transform="translate(-26.955 -171.211)" fill="#fff"/>
    <path id="Path_31877" data-name="Path 31877" d="M21.47,235.242H13.607A13.607,13.607,0,0,1,0,221.635v-57.99a13.607,13.607,0,0,1,13.607-13.6H21.47A13.741,13.741,0,0,0,7.862,163.8v57.99A13.475,13.475,0,0,0,21.47,235.242Z" transform="translate(0 -106.26)" fill="#ff0009"/>
    <path id="Path_31878" data-name="Path 31878" d="M93.139,52.481H54.312a1.886,1.886,0,1,1,0-3.771H93.139a1.886,1.886,0,0,1,0,3.771Z" transform="translate(-39.245 -30.408)" fill="#fff"/>
    <path id="Path_31879" data-name="Path 31879" d="M93.139,93.531H54.312a1.886,1.886,0,0,1,0-3.771H93.139a1.886,1.886,0,0,1,0,3.771Z" transform="translate(-39.245 -61.136)" fill="#fff"/>
    <g id="Group_40951" data-name="Group 40951" transform="translate(14.247 72.743)">
      <path id="Path_31880" data-name="Path 31880" d="M111.34,266.683c-.006-.017-.013-.034-.02-.051a2.241,2.241,0,0,0-2.08-1.394h0a2.241,2.241,0,0,0-2.08,1.4l-.016.042-6.018,15.8a1.886,1.886,0,0,0,3.525,1.342l1.036-2.72h7.066l1.025,2.715a1.886,1.886,0,1,0,3.528-1.332Zm-4.219,10.646,2.113-5.547,2.093,5.547Z" transform="translate(-89.852 -265.237)" fill="#0066af"/>
      <path id="Path_31881" data-name="Path 31881" d="M187.965,282.063l-5.273-7.5,4.48-6.359a1.886,1.886,0,0,0-3.083-2.172l-3.7,5.254-3.7-5.253a1.886,1.886,0,1,0-3.084,2.17l4.473,6.358-5.281,7.5a1.886,1.886,0,1,0,3.083,2.172l4.5-6.393,4.5,6.392a1.885,1.885,0,1,0,3.084-2.17Z" transform="translate(-143.341 -265.236)" fill="#0066af"/>
      <path id="Path_31882" data-name="Path 31882" d="M69.285,267.124a1.886,1.886,0,0,0-1.886-1.886H58.549a1.886,1.886,0,1,0,0,3.771H61.07V283.15a1.886,1.886,0,1,0,3.771,0V269.009H67.4a1.886,1.886,0,0,0,1.886-1.886Z" transform="translate(-56.663 -265.237)" fill="#0066af"/>
    </g>
  </g>
</svg>
