<svg xmlns="http://www.w3.org/2000/svg" width="120.832" height="120.893" viewBox="0 0 120.832 120.893">
  <g id="accounting" transform="translate(-0.5)">
    <path id="Path_31841" data-name="Path 31841" d="M123.2,32H56.5V144.555h91.712V57.012H123.2Zm0,0" transform="translate(-41.409 -23.663)" fill="#fff"/>
    <path id="Path_31842" data-name="Path 31842" d="M128.5,298.362h72.953V240C201.453,269.955,164.215,298.362,128.5,298.362Zm0,0" transform="translate(-94.65 -177.469)" fill="#ffacac"/>
    <path id="Path_31843" data-name="Path 31843" d="M4.669,0H50.525a4.169,4.169,0,0,1,4.169,4.169V62.531A4.169,4.169,0,0,1,50.525,66.7H4.669A4.169,4.169,0,0,1,.5,62.531V4.169A4.169,4.169,0,0,1,4.669,0Zm0,0" fill="#d1e7f8"/>
    <path id="Path_31844" data-name="Path 31844" d="M312.5,57.012h25.012L312.5,32Zm0,0" transform="translate(-230.71 -23.663)" fill="#c51c22"/>
    <path id="Path_31845" data-name="Path 31845" d="M24.5,24H66.187V34.422H24.5Zm0,0" transform="translate(-17.747 -17.747)" fill="#fff"/>
    <g id="Group_40949" data-name="Group 40949" transform="translate(8.837 22.928)">
      <path id="Path_31846" data-name="Path 31846" d="M34.584,88h4.169a2.084,2.084,0,0,1,2.084,2.084v4.169a2.084,2.084,0,0,1-2.084,2.084H34.584A2.084,2.084,0,0,1,32.5,94.253V90.084A2.084,2.084,0,0,1,34.584,88Zm0,0" transform="translate(-32.5 -88)" fill="#0066af"/>
      <path id="Path_31847" data-name="Path 31847" d="M90.584,88h4.169a2.084,2.084,0,0,1,2.084,2.084v4.169a2.084,2.084,0,0,1-2.084,2.084H90.584A2.084,2.084,0,0,1,88.5,94.253V90.084A2.084,2.084,0,0,1,90.584,88Zm0,0" transform="translate(-73.909 -88)" fill="#0066af"/>
      <path id="Path_31848" data-name="Path 31848" d="M146.584,88h4.169a2.084,2.084,0,0,1,2.084,2.084v4.169a2.084,2.084,0,0,1-2.084,2.084h-4.169a2.084,2.084,0,0,1-2.084-2.084V90.084A2.084,2.084,0,0,1,146.584,88Zm0,0" transform="translate(-115.319 -88)" fill="#0066af"/>
      <path id="Path_31849" data-name="Path 31849" d="M34.584,144h4.169a2.084,2.084,0,0,1,2.084,2.084v4.169a2.084,2.084,0,0,1-2.084,2.084H34.584a2.084,2.084,0,0,1-2.084-2.084v-4.169A2.084,2.084,0,0,1,34.584,144Zm0,0" transform="translate(-32.5 -129.409)" fill="#0066af"/>
      <path id="Path_31850" data-name="Path 31850" d="M90.584,144h4.169a2.084,2.084,0,0,1,2.084,2.084v4.169a2.084,2.084,0,0,1-2.084,2.084H90.584a2.084,2.084,0,0,1-2.084-2.084v-4.169A2.084,2.084,0,0,1,90.584,144Zm0,0" transform="translate(-73.909 -129.409)" fill="#0066af"/>
      <path id="Path_31851" data-name="Path 31851" d="M146.584,144h4.169a2.084,2.084,0,0,1,2.084,2.084v4.169a2.084,2.084,0,0,1-2.084,2.084h-4.169a2.084,2.084,0,0,1-2.084-2.084v-4.169A2.084,2.084,0,0,1,146.584,144Zm0,0" transform="translate(-115.319 -129.409)" fill="#0066af"/>
      <path id="Path_31852" data-name="Path 31852" d="M34.584,200h4.169a2.084,2.084,0,0,1,2.084,2.084v4.169a2.084,2.084,0,0,1-2.084,2.084H34.584a2.084,2.084,0,0,1-2.084-2.084v-4.169A2.084,2.084,0,0,1,34.584,200Zm0,0" transform="translate(-32.5 -170.819)" fill="#0066af"/>
      <path id="Path_31853" data-name="Path 31853" d="M90.584,200h4.169a2.084,2.084,0,0,1,2.084,2.084v4.169a2.084,2.084,0,0,1-2.084,2.084H90.584a2.084,2.084,0,0,1-2.084-2.084v-4.169A2.084,2.084,0,0,1,90.584,200Zm0,0" transform="translate(-73.909 -170.819)" fill="#0066af"/>
    </g>
    <path id="Path_31854" data-name="Path 31854" d="M434.48,255.352a4.169,4.169,0,0,0-5.9-5.9l-2.947,2.946,5.9,5.9Zm0,0" transform="translate(-314.369 -183.558)" fill="#0066af"/>
    <path id="Path_31855" data-name="Path 31855" d="M285.532,309.515,280.5,320.444l10.929-5.032,28.378-28.38-5.895-5.895Zm0,0" transform="translate(-207.048 -207.888)" fill="#0066af"/>
    <path id="Path_31856" data-name="Path 31856" d="M408.734,268.644l4.4-4.4,5.9,5.895-4.4,4.4Zm0,0" transform="translate(-301.871 -195.395)" fill="#ffc011"/>
    <path id="Path_31857" data-name="Path 31857" d="M32.5,149.518H74.187a4.182,4.182,0,0,0,4.169-4.169V112C78.356,132.738,57.846,149.518,32.5,149.518Zm0,0" transform="translate(-23.663 -82.819)" fill="#c2dff6"/>
    <path id="Path_31858" data-name="Path 31858" d="M146.584,200h4.169a2.084,2.084,0,0,1,2.084,2.084v4.169a2.084,2.084,0,0,1-2.084,2.084h-4.169a2.084,2.084,0,0,1-2.084-2.084v-4.169A2.084,2.084,0,0,1,146.584,200Zm0,0" transform="translate(-106.482 -147.891)" fill="#0066af"/>
    <g id="Group_40950" data-name="Group 40950">
      <path id="Path_31859" data-name="Path 31859" d="M248.5,192h4.169v4.169H248.5Zm0,0" transform="translate(-183.385 -141.975)" fill="#fff"/>
      <path id="Path_31860" data-name="Path 31860" d="M280.5,192h25.012v4.169H280.5Zm0,0" transform="translate(-207.047 -141.975)" fill="#fff"/>
      <path id="Path_31861" data-name="Path 31861" d="M248.5,160h4.169v4.169H248.5Zm0,0" transform="translate(-183.385 -118.313)" fill="#fff"/>
      <path id="Path_31862" data-name="Path 31862" d="M280.5,160h25.012v4.169H280.5Zm0,0" transform="translate(-207.047 -118.313)" fill="#fff"/>
      <path id="Path_31863" data-name="Path 31863" d="M248.5,224h4.169v4.169H248.5Zm0,0" transform="translate(-183.385 -165.638)" fill="#fff"/>
      <path id="Path_31864" data-name="Path 31864" d="M280.5,224h25.012v4.169H280.5Zm0,0" transform="translate(-207.047 -165.638)" fill="#fff"/>
      <path id="Path_31865" data-name="Path 31865" d="M248.5,256h4.169v4.169H248.5Zm0,0" transform="translate(-183.385 -189.3)" fill="#fff"/>
      <path id="Path_31866" data-name="Path 31866" d="M280.5,256h25.012v4.169H280.5Zm0,0" transform="translate(-207.047 -189.3)" fill="#fff"/>
    </g>
    <path id="Path_31867" data-name="Path 31867" d="M104.5,306.759a18.759,18.759,0,0,0,18.759,18.759V288A18.759,18.759,0,0,0,104.5,306.759Zm0,0" transform="translate(-76.903 -212.963)" fill="#ffc011"/>
    <path id="Path_31868" data-name="Path 31868" d="M176.5,288v37.518a18.759,18.759,0,0,0,0-37.518Zm0,0" transform="translate(-130.144 -212.963)" fill="#ffd04e"/>
    <path id="Path_31869" data-name="Path 31869" d="M152.837,318.253c2.545,0,4.169,1.233,4.169,2.084h4.169c0-2.962-2.624-5.361-6.253-6.044V312h-4.169v2.293c-3.629.679-6.253,3.079-6.253,6.044,0,3.508,3.662,6.253,8.337,6.253,2.545,0,4.169,1.234,4.169,2.084s-1.623,2.084-4.169,2.084-4.169-1.234-4.169-2.084H144.5c0,2.962,2.624,5.36,6.253,6.044v2.293h4.169v-2.293c3.629-.679,6.253-3.079,6.253-6.044,0-3.508-3.662-6.253-8.337-6.253-2.545,0-4.169-1.234-4.169-2.084S150.292,318.253,152.837,318.253Zm0,0" transform="translate(-106.482 -230.71)" fill="#c51c22"/>
  </g>
</svg>
