<svg id="Trademarks" xmlns="http://www.w3.org/2000/svg" width="121" height="121" viewBox="0 0 121 121">
  <g id="Group_40948" data-name="Group 40948">
    <circle id="Ellipse_5" data-name="Ellipse 5" cx="60.5" cy="60.5" r="60.5" fill="#f7e2e2"/>
    <path id="Path_31839" data-name="Path 31839" d="M136.592,51.961a60.409,60.409,0,0,1-84.631,84.631,60.409,60.409,0,1,0,84.631-84.631Z" transform="translate(-39.7 -39.7)" fill="#ffacac"/>
    <circle id="Ellipse_6" data-name="Ellipse 6" cx="49.113" cy="49.113" r="49.113" transform="translate(11.296 11.296)" fill="#fff"/>
    <g id="Group_40947" data-name="Group 40947" transform="translate(40.575 25.314)">
      <path id="Path_31840" data-name="Path 31840" d="M193.486,147.987a21.613,21.613,0,0,0,14.191-5.853,19.627,19.627,0,0,0,0-28.992,21.632,21.632,0,0,0-14.872-5.869H176.368a4.42,4.42,0,0,0-4.42,4.436l.113,61.335a4.42,4.42,0,1,0,8.841,0v-25l.858,0,24.574,27.921a4.42,4.42,0,1,0,6.636-5.841Zm-.681-31.873c6.736,0,12.427,5.277,12.427,11.524s-5.691,11.524-12.427,11.524c-2.7,0-7.982.025-11.785.046l-.216-23.094Z" transform="translate(-171.948 -107.274)" fill="#c51c22"/>
    </g>
  </g>
</svg>
